<?xml version="1.0" standalone="no"?>
<!DOCTYPE svg PUBLIC "-//W3C//DTD SVG 20010904//EN"
 "http://www.w3.org/TR/2001/REC-SVG-20010904/DTD/svg10.dtd">
<svg version="1.0" xmlns="http://www.w3.org/2000/svg"
 width="1200.000000pt" height="1200.000000pt" viewBox="0 0 1200.000000 1200.000000"
 preserveAspectRatio="xMidYMid meet">
<metadata>
Created by potrace 1.14, written by Peter Selinger 2001-2017
</metadata>
<g transform="translate(0.000000,1200.000000) scale(0.100000,-0.100000)"
fill="#000000" stroke="none">
<path d="M5434 10312 c2 -4 -26 -8 -62 -9 -39 -2 -69 -8 -74 -15 -4 -7 -8 -8
-8 -3 0 6 -11 10 -24 10 -13 0 -22 -5 -19 -11 2 -6 -9 -9 -27 -8 -16 1 -30 -1
-30 -6 0 -4 -11 -5 -25 -2 -14 2 -25 0 -25 -6 0 -6 -10 -8 -22 -4 -13 3 -19 1
-15 -5 4 -6 -5 -9 -24 -7 -21 3 -28 0 -23 -8 5 -7 0 -9 -14 -6 -12 4 -22 2
-22 -4 0 -6 -13 -8 -29 -6 -18 3 -29 0 -28 -6 1 -6 -6 -10 -16 -8 -10 2 -25
-2 -32 -8 -8 -7 -19 -9 -25 -5 -5 3 -10 1 -10 -5 0 -6 -4 -9 -9 -5 -5 3 -12 1
-16 -5 -3 -5 -20 -10 -36 -10 -17 0 -28 -4 -24 -9 3 -6 -6 -8 -21 -5 -16 3
-23 1 -19 -6 4 -7 -3 -9 -19 -6 -17 3 -24 1 -20 -6 5 -7 -2 -9 -19 -6 -18 3
-24 1 -20 -8 3 -9 -2 -11 -16 -7 -12 3 -21 1 -21 -4 0 -6 -12 -9 -26 -7 -14 1
-23 0 -20 -4 9 -8 -54 -33 -65 -26 -5 3 -9 0 -9 -6 0 -6 -5 -8 -10 -5 -6 3
-13 -1 -16 -10 -5 -11 -9 -13 -13 -6 -5 7 -15 4 -29 -9 -14 -13 -22 -16 -22
-8 0 10 -2 10 -9 0 -4 -8 -11 -13 -15 -13 -19 3 -27 0 -22 -8 3 -4 -6 -6 -21
-3 -20 4 -24 2 -18 -8 6 -10 4 -12 -8 -7 -12 4 -17 1 -17 -11 0 -13 -2 -14 -9
-3 -6 9 -11 10 -15 2 -4 -6 -12 -9 -17 -6 -5 4 -9 1 -9 -5 0 -7 -7 -9 -15 -6
-9 3 -18 -1 -21 -9 -3 -7 -12 -11 -20 -8 -8 3 -14 0 -14 -6 0 -6 -3 -10 -7 -9
-5 1 -19 -4 -33 -12 -14 -8 -33 -13 -44 -11 -12 2 -16 -1 -11 -10 6 -9 2 -11
-13 -7 -12 4 -23 0 -26 -8 -3 -8 -12 -11 -22 -7 -13 5 -15 3 -9 -7 6 -10 3
-12 -13 -8 -12 4 -22 2 -22 -3 0 -5 -7 -9 -15 -9 -8 0 -15 -5 -15 -11 0 -6 -9
-9 -20 -6 -13 3 -20 0 -20 -10 0 -8 -4 -12 -9 -8 -5 3 -12 1 -16 -4 -3 -5 -15
-8 -26 -6 -16 3 -18 1 -10 -9 9 -11 6 -12 -15 -8 -19 3 -25 1 -20 -7 5 -7 -2
-11 -18 -11 -13 0 -31 -7 -40 -15 -8 -9 -22 -12 -32 -8 -12 4 -15 3 -10 -5 4
-7 1 -12 -8 -12 -9 0 -16 -5 -16 -11 0 -6 -6 -9 -12 -7 -7 3 -19 -1 -26 -9 -8
-7 -17 -11 -22 -8 -4 3 -13 -2 -20 -10 -7 -8 -21 -15 -31 -15 -11 0 -19 -4
-19 -10 0 -5 -7 -6 -17 -3 -9 4 -14 2 -10 -3 3 -5 -6 -14 -19 -21 -16 -7 -22
-8 -17 -1 7 12 -6 6 -49 -24 -16 -11 -28 -16 -28 -13 0 4 -7 -1 -16 -10 -14
-13 -19 -14 -25 -3 -7 10 -9 8 -9 -6 0 -13 -5 -16 -16 -12 -12 5 -15 2 -10 -9
3 -10 2 -13 -5 -10 -5 4 -16 1 -24 -5 -8 -6 -20 -8 -26 -4 -8 5 -10 2 -6 -8 4
-12 1 -14 -14 -11 -11 3 -19 0 -19 -7 0 -7 -7 -10 -16 -6 -11 4 -15 2 -11 -8
4 -10 0 -12 -14 -9 -11 3 -19 0 -19 -7 0 -7 -7 -10 -15 -6 -9 3 -15 0 -15 -9
0 -9 -8 -12 -20 -10 -11 2 -18 1 -16 -4 3 -4 -4 -12 -14 -19 -17 -10 -18 -9
-13 5 6 15 5 16 -9 3 -9 -8 -14 -18 -11 -23 2 -4 1 -7 -4 -6 -22 4 -44 -2 -39
-10 4 -5 -7 -12 -24 -16 -17 -4 -27 -11 -24 -17 4 -6 -1 -8 -14 -4 -14 5 -25
0 -36 -16 -9 -13 -16 -17 -16 -9 0 10 -6 8 -17 -6 -10 -11 -23 -18 -29 -16 -6
2 -17 -3 -24 -12 -7 -8 -19 -15 -26 -15 -8 0 -14 -8 -14 -17 0 -14 -2 -15 -9
-5 -6 11 -11 10 -24 -3 -9 -9 -21 -13 -27 -10 -6 4 -9 1 -8 -7 2 -8 -4 -12
-14 -10 -10 2 -18 -2 -18 -8 0 -6 -4 -9 -9 -6 -5 3 -12 -1 -15 -10 -3 -8 -10
-12 -16 -9 -5 3 -10 1 -10 -5 0 -6 -5 -8 -10 -5 -5 3 -10 1 -10 -5 0 -7 -7
-10 -15 -6 -9 3 -15 0 -15 -9 0 -8 -3 -14 -7 -14 -19 3 -32 -3 -57 -26 -14
-13 -26 -19 -27 -12 0 7 -4 2 -10 -11 -5 -13 -13 -20 -19 -17 -5 3 -10 1 -10
-4 0 -6 -7 -11 -16 -11 -8 0 -12 -4 -9 -10 3 -5 1 -10 -5 -10 -6 0 -21 -11
-34 -25 -13 -14 -27 -25 -31 -25 -11 0 -45 -41 -45 -54 0 -6 -4 -5 -9 3 -7 11
-10 9 -16 -8 -3 -12 -10 -19 -14 -17 -4 3 -18 -12 -32 -33 -13 -22 -27 -37
-31 -34 -5 2 -8 -3 -8 -11 0 -9 -4 -16 -8 -16 -10 0 -62 -78 -62 -93 0 -7 -5
-19 -11 -27 -8 -12 -9 -10 -4 8 3 12 4 22 1 22 -3 0 -11 -20 -17 -45 -6 -25
-15 -42 -20 -39 -5 3 -6 -3 -2 -12 4 -11 3 -15 -4 -11 -7 5 -10 -2 -9 -18 2
-13 -1 -22 -5 -19 -7 4 -11 -7 -9 -28 0 -2 -7 -26 -15 -55 -16 -55 -27 -221
-12 -200 5 8 7 5 5 -8 -1 -11 1 -26 6 -34 6 -10 5 -12 -2 -7 -7 4 -12 2 -12
-3 0 -6 5 -11 11 -11 8 0 9 -11 5 -32 -4 -25 -3 -29 5 -18 8 12 10 9 6 -12 -3
-18 0 -28 8 -28 8 0 10 -9 7 -25 -2 -14 0 -25 7 -25 6 0 8 -7 4 -17 -5 -12 -3
-14 7 -8 10 6 12 2 8 -19 -5 -23 -3 -24 10 -14 13 11 15 10 9 -5 -4 -12 0 -29
13 -47 11 -15 24 -39 30 -54 5 -14 14 -26 20 -26 5 0 10 -6 10 -14 0 -13 32
-52 102 -125 18 -19 27 -31 21 -27 -7 4 -13 2 -13 -3 0 -6 9 -11 21 -11 11 0
18 -4 14 -9 -3 -5 4 -13 16 -16 17 -6 19 -9 8 -16 -10 -6 -8 -9 9 -9 12 0 22
-5 22 -10 0 -15 31 -45 53 -53 10 -4 15 -11 12 -17 -3 -5 2 -10 12 -10 10 0
26 -12 36 -25 17 -24 17 -24 0 -20 -10 3 -8 0 5 -6 12 -7 22 -16 22 -21 0 -5
5 -6 10 -3 6 3 10 -1 10 -9 0 -20 30 -56 47 -56 7 0 10 -7 6 -17 -5 -12 -3
-14 7 -8 10 6 12 4 7 -8 -4 -12 -1 -17 9 -17 10 0 14 -6 10 -15 -4 -10 1 -15
14 -15 13 0 20 -7 20 -19 0 -22 23 -44 35 -33 5 4 5 -1 2 -10 -4 -13 -1 -18
10 -18 9 0 14 -3 10 -6 -3 -3 7 -19 23 -34 16 -15 26 -31 23 -34 -4 -3 -1 -6
5 -6 7 0 12 -7 12 -16 0 -8 4 -12 10 -9 5 3 10 -1 10 -10 0 -9 5 -13 10 -10 6
3 10 1 10 -5 0 -12 10 -25 53 -70 16 -17 26 -30 23 -30 -3 0 6 -12 19 -26 14
-15 25 -31 25 -35 0 -5 7 -9 16 -9 8 0 12 -4 9 -10 -3 -5 -1 -10 4 -10 6 0 11
-4 11 -10 0 -12 32 -45 51 -53 10 -4 10 -6 2 -6 -8 -1 -5 -10 9 -26 11 -13 26
-21 31 -18 6 4 8 0 4 -10 -3 -10 -2 -17 3 -17 6 0 10 -7 10 -16 0 -8 4 -13 8
-10 5 3 19 -6 30 -19 14 -16 17 -25 9 -26 -6 0 -2 -4 10 -9 12 -5 25 -21 29
-35 6 -23 15 -30 37 -26 5 1 6 -3 2 -9 -3 -5 1 -13 9 -16 9 -3 14 -10 11 -14
-3 -4 2 -11 11 -14 8 -3 13 -9 11 -13 -3 -5 1 -14 9 -21 8 -7 14 -9 14 -5 1 4
8 -4 16 -19 8 -16 20 -28 26 -28 6 0 9 -3 5 -6 -8 -8 34 -54 44 -48 5 3 6 -2
3 -10 -3 -9 -1 -16 5 -16 6 0 11 -8 11 -17 0 -15 2 -16 10 -3 8 12 10 11 10
-5 0 -21 32 -55 51 -55 5 0 8 -4 5 -9 -7 -10 47 -71 63 -71 6 0 8 -7 5 -15 -4
-8 -1 -15 6 -15 6 0 8 -5 4 -12 -5 -8 -2 -9 10 -5 10 4 15 3 11 -3 -3 -6 -1
-10 6 -10 7 0 9 -3 6 -7 -4 -3 5 -16 18 -29 14 -13 25 -26 25 -29 0 -13 28
-34 35 -27 5 4 5 2 1 -5 -4 -7 6 -24 24 -41 16 -16 26 -33 22 -37 -4 -5 1 -5
11 -2 11 4 16 3 12 -4 -8 -12 14 -41 26 -33 5 3 9 -2 9 -10 0 -9 5 -16 10 -16
6 0 10 -7 10 -15 0 -8 5 -15 10 -15 6 0 10 -7 10 -15 0 -8 4 -14 9 -12 5 1 10
-2 12 -8 2 -5 11 -19 21 -29 10 -11 18 -23 18 -27 0 -4 9 -11 20 -14 11 -3 20
-12 20 -20 0 -7 12 -23 27 -35 16 -12 22 -19 16 -15 -7 3 -13 1 -13 -4 0 -6 6
-11 14 -11 8 0 23 -13 33 -30 9 -16 24 -30 33 -30 12 0 13 -2 1 -9 -11 -7 -9
-10 8 -16 20 -6 26 -17 21 -40 -1 -5 1 -7 5 -3 9 8 45 -23 45 -39 0 -7 9 -17
20 -23 11 -6 18 -15 15 -21 -4 -5 2 -9 11 -9 10 0 15 -3 11 -6 -8 -8 16 -33
25 -27 4 2 5 -3 2 -11 -4 -11 0 -16 12 -16 9 0 14 -3 11 -7 -4 -3 8 -20 26
-36 17 -17 26 -26 18 -22 -9 5 -12 4 -7 -3 4 -7 15 -12 24 -12 15 0 15 -2 2
-10 -12 -8 -11 -10 7 -10 16 0 21 -4 17 -15 -4 -9 0 -15 9 -15 9 0 24 -13 34
-30 9 -16 21 -30 26 -30 4 0 6 -4 3 -9 -3 -5 1 -12 10 -15 8 -3 12 -10 9 -16
-3 -5 0 -10 8 -10 7 0 20 -11 27 -25 7 -14 17 -25 22 -25 4 0 8 -7 8 -15 0 -8
7 -15 16 -15 8 0 13 -3 11 -7 -7 -11 19 -33 27 -25 4 3 4 -1 0 -11 -4 -12 -1
-17 11 -17 9 0 13 -4 10 -10 -3 -6 -1 -10 5 -10 7 0 10 -7 6 -15 -3 -8 -2 -14
2 -14 19 3 32 -2 32 -14 0 -7 9 -19 20 -27 11 -8 20 -20 20 -26 0 -7 7 -15 16
-18 8 -3 12 -10 9 -16 -3 -5 3 -10 14 -10 14 0 19 -5 15 -15 -4 -10 0 -15 12
-15 16 0 17 -2 4 -10 -13 -8 -13 -10 1 -10 9 0 25 -12 35 -26 10 -15 31 -40
47 -57 15 -18 27 -35 27 -40 0 -4 5 -5 10 -2 6 4 10 3 9 -2 -4 -15 13 -43 25
-43 6 0 22 -18 36 -40 14 -22 30 -40 37 -40 7 0 13 -5 13 -10 0 -6 9 -20 20
-32 10 -12 17 -25 14 -30 -3 -4 0 -8 5 -8 17 0 52 -40 46 -50 -4 -6 -1 -10 5
-10 6 0 21 -10 33 -21 12 -12 15 -19 7 -15 -8 4 -6 0 4 -8 11 -9 30 -16 44
-16 15 0 21 -4 16 -12 -5 -7 -3 -8 6 -3 7 4 16 2 21 -6 7 -11 9 -11 9 -1 0 7
4 11 9 8 13 -8 81 -20 119 -21 17 0 32 -4 32 -8 0 -5 13 -6 29 -2 16 3 46 2
65 -4 21 -5 34 -6 31 0 -4 5 -1 9 4 9 6 0 11 -6 11 -12 0 -9 3 -9 8 -2 8 12
72 13 72 1 0 -5 5 -5 10 -2 6 4 8 11 5 16 -3 5 0 7 7 4 26 -10 77 -12 72 -3
-3 5 8 6 25 3 16 -3 32 -1 35 4 3 5 21 5 41 1 29 -7 34 -6 25 5 -9 11 -4 12
25 5 32 -7 34 -6 23 8 -11 13 -11 14 0 8 20 -12 62 -14 62 -3 0 5 13 7 29 5
18 -3 29 0 28 6 -2 12 7 12 37 0 15 -6 18 -4 14 7 -4 11 6 14 45 15 28 0 52 5
54 11 2 5 15 8 30 5 17 -3 24 -1 19 6 -4 7 2 9 19 6 14 -2 25 0 25 5 0 4 8 8
18 8 25 0 62 14 62 24 0 4 9 6 20 4 11 -2 18 0 15 6 -4 5 1 9 10 9 9 0 13 5
10 10 -3 6 3 10 14 10 12 0 21 5 21 12 0 6 3 8 7 4 4 -3 13 4 20 16 7 13 12
17 13 10 0 -10 3 -10 14 0 8 7 11 17 8 22 -3 5 -1 6 5 3 5 -4 20 3 31 14 12
11 22 16 22 12 1 -4 7 3 15 17 8 14 14 22 15 18 0 -12 70 59 70 72 0 7 7 10
15 6 8 -3 15 0 15 7 0 7 9 20 20 30 12 10 18 23 14 29 -5 7 -3 8 5 4 8 -5 14
0 18 13 3 12 10 21 15 21 5 0 6 5 3 10 -3 5 -2 10 4 10 9 0 18 19 22 45 1 6 8
15 16 20 7 6 15 19 17 30 10 50 29 111 39 124 10 12 9 13 -2 7 -10 -7 -11 -3
-5 15 4 13 7 31 7 39 0 8 5 18 11 22 7 5 6 8 -4 8 -13 0 -13 1 0 10 13 9 13
11 0 20 -13 9 -13 10 0 10 13 0 13 1 0 10 -14 9 -7 14 13 11 5 -1 4 6 -1 15
-6 10 -6 33 0 58 5 22 7 49 5 58 -3 10 -1 18 5 18 6 0 8 11 6 25 -3 14 -1 25
6 25 6 0 5 4 -2 9 -8 4 -13 11 -12 14 1 4 5 20 10 36 5 19 4 33 -3 41 -9 10
-9 11 -1 7 7 -4 15 0 18 9 5 12 2 15 -11 10 -15 -5 -15 -4 1 9 12 9 15 15 7
15 -8 0 -11 6 -6 18 4 9 9 59 11 111 2 51 6 97 9 101 3 5 1 11 -4 15 -6 3 -8
11 -6 18 2 7 6 28 9 48 3 20 8 44 12 55 5 16 4 17 -5 4 -9 -12 -11 -5 -7 32 2
25 7 52 11 59 5 8 4 10 -3 5 -7 -4 -12 -1 -12 9 0 10 5 13 12 9 7 -5 8 -3 2 7
-11 18 -13 137 -2 167 4 13 4 21 -1 18 -4 -3 -8 30 -7 74 1 44 -1 80 -4 80 -9
0 -5 75 5 82 6 5 5 8 -2 8 -7 0 -13 5 -13 11 0 5 5 7 11 3 8 -5 9 -2 1 11 -6
11 -6 30 -1 47 5 20 4 26 -3 22 -8 -5 -9 4 -5 30 3 22 2 34 -4 31 -5 -4 -9 -2
-9 4 0 5 6 12 13 14 7 3 8 6 1 6 -6 1 -9 12 -6 26 3 16 0 25 -9 25 -8 0 -5 6
7 16 10 8 13 12 5 8 -11 -6 -13 -1 -8 25 5 24 4 30 -6 25 -9 -6 -8 -3 1 8 8
10 9 18 3 22 -6 4 -7 14 -4 22 3 9 0 20 -8 25 -11 7 -9 9 6 9 15 0 17 2 6 9
-9 6 -11 18 -7 35 4 16 2 26 -4 26 -11 0 -6 62 6 81 3 5 -2 6 -11 3 -13 -5
-15 -1 -10 22 4 16 9 35 11 43 4 11 2 12 -11 1 -14 -11 -14 -10 -6 14 8 19 7
26 -2 26 -8 0 -7 4 3 10 12 8 12 10 1 10 -10 0 -12 9 -7 35 4 19 3 35 -2 35
-5 0 -7 11 -5 24 3 13 0 26 -5 30 -7 4 -7 17 -2 36 5 19 5 30 -1 30 -6 0 -8
14 -5 30 2 17 1 30 -3 30 -5 0 -7 18 -5 40 2 22 -1 38 -5 35 -5 -2 -7 11 -4
30 3 19 1 35 -4 35 -5 0 -8 16 -7 35 1 19 -2 35 -7 35 -6 0 -5 8 1 19 13 26
13 34 -1 25 -8 -5 -10 1 -7 20 3 14 1 26 -4 26 -5 0 -4 10 3 21 6 12 7 19 1
15 -5 -3 -12 1 -15 8 -3 8 -1 17 6 20 9 3 9 5 0 5 -7 1 -13 6 -13 12 0 5 6 7
13 3 9 -6 9 -4 1 7 -6 8 -10 22 -9 32 2 9 -1 14 -7 11 -6 -4 -8 6 -5 25 3 17
2 31 -2 31 -6 0 -9 17 -12 92 -1 15 -5 25 -10 22 -6 -3 -7 8 -4 26 3 19 2 29
-4 26 -5 -4 -7 7 -4 25 2 16 0 36 -6 43 -6 7 -8 16 -4 19 3 4 0 14 -8 24 -12
15 -12 16 1 8 12 -6 12 -5 3 5 -6 7 -9 19 -6 26 3 8 1 14 -4 14 -11 0 -11 39
0 57 6 9 3 11 -7 7 -11 -4 -13 0 -9 17 4 13 2 20 -3 16 -6 -3 -11 3 -11 14 -1
11 2 17 7 14 4 -3 6 4 3 15 -3 11 -9 18 -13 15 -4 -2 -6 8 -4 22 1 15 0 32 -4
38 -4 5 -7 17 -7 25 0 8 -3 20 -7 25 -3 6 -5 22 -3 38 2 15 -1 25 -6 22 -5 -4
-9 4 -9 17 -1 62 -5 86 -13 81 -5 -3 -8 5 -6 18 1 13 -1 32 -5 41 -4 9 -4 22
0 29 4 8 3 9 -4 5 -8 -5 -12 3 -12 24 0 17 -3 29 -7 27 -5 -3 -9 15 -10 40 -1
25 -8 52 -15 61 -11 13 -11 15 2 7 12 -6 12 -5 3 5 -6 7 -9 19 -6 28 4 9 2 13
-4 9 -6 -4 -9 3 -7 18 1 14 -2 25 -8 25 -6 0 -8 9 -5 20 3 11 1 23 -4 26 -5 3
-7 16 -5 30 3 14 1 22 -5 19 -5 -4 -9 6 -9 20 0 18 -4 24 -12 19 -10 -6 -10
-5 -1 7 8 9 9 20 3 29 -6 8 -10 25 -10 38 0 13 -4 20 -10 17 -7 -4 -9 5 -5 24
3 18 1 31 -5 31 -6 0 -8 11 -6 25 3 14 0 25 -5 25 -5 0 -9 9 -9 21 0 11 -4 17
-10 14 -7 -4 -7 3 0 20 8 20 6 27 -4 31 -8 3 -12 12 -9 20 3 8 0 14 -6 14 -6
0 -11 5 -11 11 0 5 4 8 9 5 5 -3 0 11 -10 31 -11 21 -19 45 -19 55 0 10 -4 18
-10 18 -5 0 -10 5 -10 11 0 5 6 7 13 3 6 -4 4 2 -5 13 -10 11 -18 25 -18 31 0
7 -4 12 -9 12 -5 0 -7 10 -4 23 4 18 3 19 -6 7 -9 -12 -11 -10 -11 13 0 15 -5
27 -11 27 -6 0 -8 7 -5 16 4 11 2 15 -8 11 -10 -4 -13 -1 -9 9 3 7 0 14 -7 14
-7 0 -10 6 -7 13 3 8 -3 20 -14 28 -10 7 -19 19 -19 26 0 7 -4 13 -10 13 -5 0
-10 6 -10 14 0 8 -7 16 -15 20 -8 3 -15 15 -15 26 0 11 -5 20 -11 20 -15 0
-59 47 -51 54 3 3 -2 6 -11 6 -10 0 -17 7 -17 15 0 14 -12 20 -33 16 -5 -1 -5
3 -2 9 4 7 -2 14 -14 17 -11 3 -18 9 -15 14 5 8 -9 13 -28 10 -4 0 -12 8 -17
18 -6 10 -24 21 -41 25 -17 3 -29 10 -26 15 7 10 -16 21 -44 21 -9 0 -23 7
-30 15 -15 18 -45 21 -34 3 4 -7 3 -8 -5 -4 -6 4 -9 11 -6 16 3 5 -30 16 -72
25 -43 9 -90 20 -105 25 -16 5 -28 5 -28 0 0 -4 -8 -7 -17 -5 -43 9 -103 13
-99 7z"/>
<path d="M6996 9563 c-10 -10 -7 -25 4 -18 6 4 10 -5 10 -19 0 -14 4 -26 10
-26 5 0 6 -7 3 -17 -5 -12 -3 -14 7 -8 8 5 11 3 8 -6 -3 -8 1 -20 8 -27 7 -7
11 -19 8 -26 -3 -8 0 -17 5 -21 6 -3 9 -11 6 -16 -4 -5 -2 -9 4 -9 5 0 8 -9 6
-20 -2 -13 2 -20 11 -20 8 0 12 -5 9 -10 -4 -6 -1 -18 7 -27 11 -14 11 -16 -2
-8 -13 8 -13 6 -1 -8 7 -9 11 -24 7 -32 -3 -9 -2 -13 4 -10 6 3 10 -1 10 -10
0 -9 4 -14 8 -11 4 3 7 -8 6 -25 -1 -16 3 -29 8 -29 6 0 8 -7 4 -15 -3 -8 -1
-15 3 -15 5 0 8 -8 7 -17 -2 -10 3 -23 10 -30 7 -7 10 -22 7 -34 -4 -15 -2
-20 5 -15 8 5 10 2 6 -8 -4 -10 -1 -16 7 -16 11 0 11 -3 -1 -10 -12 -7 -12
-10 -1 -10 7 0 11 -6 7 -15 -3 -8 -1 -15 5 -15 7 0 9 -12 7 -30 -3 -20 -1 -27
6 -21 10 9 12 3 16 -71 1 -10 4 -18 8 -18 7 0 11 -20 13 -67 1 -13 6 -23 12
-23 6 0 7 -3 4 -6 -3 -4 -2 -16 4 -27 7 -12 7 -17 1 -13 -7 4 -6 -5 1 -23 6
-17 14 -28 17 -26 4 2 4 -10 2 -27 -3 -23 -1 -29 8 -23 9 6 10 3 2 -11 -10
-20 -5 -47 6 -40 4 2 7 -13 6 -35 0 -21 3 -39 7 -39 5 0 6 -7 3 -15 -4 -8 -2
-15 3 -15 5 0 8 -13 5 -30 -3 -18 0 -30 7 -30 7 0 9 -10 5 -26 -5 -18 -3 -25
3 -21 7 5 9 -6 6 -29 -3 -21 -1 -34 4 -31 5 4 10 0 10 -8 0 -8 -4 -12 -9 -9
-4 3 -5 -2 -2 -10 3 -9 11 -16 18 -16 6 0 4 -5 -4 -10 -9 -5 -10 -10 -3 -10 7
0 9 -11 6 -31 -3 -19 -1 -29 5 -25 6 4 8 -6 5 -25 -2 -17 -1 -29 4 -26 4 3 8
-21 8 -54 0 -32 4 -59 8 -59 5 0 7 -15 6 -33 -2 -18 -1 -37 2 -42 3 -6 4 -20
3 -32 0 -13 1 -23 5 -23 3 0 7 -19 7 -42 3 -95 9 -158 16 -158 3 0 5 -15 2
-34 -2 -19 -1 -37 4 -40 4 -2 6 -35 5 -73 -1 -37 2 -82 6 -99 5 -18 4 -38 -1
-49 -8 -13 -7 -16 1 -11 8 5 9 -4 5 -29 -3 -21 -2 -35 3 -32 5 3 6 -19 3 -49
-3 -30 -2 -57 2 -60 5 -3 6 -9 3 -14 -3 -5 -7 -22 -9 -39 -3 -27 -1 -30 12
-19 13 11 14 11 8 -1 -15 -25 -19 -81 -5 -81 8 0 5 -6 -7 -16 -10 -8 -13 -12
-6 -9 9 5 13 1 11 -11 -2 -11 0 -25 5 -33 6 -9 5 -12 -1 -8 -6 4 -10 -19 -10
-58 0 -40 4 -65 11 -65 7 0 7 -3 1 -8 -14 -10 -16 -75 -2 -84 9 -6 9 -8 0 -8
-7 0 -10 -7 -6 -17 5 -12 3 -14 -8 -8 -11 6 -11 5 -3 -4 7 -8 9 -25 4 -47 -5
-19 -4 -32 1 -28 5 3 9 -2 9 -11 0 -9 -3 -14 -7 -12 -5 3 -7 -14 -7 -36 1 -23
-2 -52 -7 -64 -5 -13 -5 -23 0 -23 10 0 8 -61 -3 -78 -4 -7 -2 -12 6 -12 9 0
9 -3 2 -8 -6 -4 -10 -37 -10 -75 1 -38 -2 -71 -6 -74 -5 -2 -8 -9 -8 -14 0 -6
4 -8 8 -5 5 3 6 -8 4 -24 -3 -19 -9 -27 -16 -23 -7 4 -7 1 1 -7 8 -9 9 -19 2
-32 -5 -10 -8 -18 -5 -18 2 0 0 -16 -4 -35 -4 -19 -4 -37 0 -40 4 -3 1 -35 -6
-72 -8 -37 -12 -73 -10 -80 3 -7 1 -13 -4 -13 -6 0 -10 -9 -10 -21 0 -11 5
-17 10 -14 6 3 10 1 10 -4 0 -6 -8 -11 -17 -11 -14 0 -15 -2 -4 -9 11 -7 11
-9 0 -14 -11 -4 -11 -6 -1 -6 8 -1 10 -6 5 -13 -4 -7 -8 -22 -9 -33 -8 -69
-12 -93 -18 -104 -4 -6 -4 -15 -1 -21 3 -5 2 -10 -4 -10 -11 0 -9 -19 3 -39 7
-10 6 -12 -4 -6 -10 6 -12 4 -7 -8 4 -10 1 -17 -6 -17 -8 0 -6 -4 3 -10 11 -7
11 -10 2 -10 -7 0 -11 -4 -8 -9 4 -5 0 -12 -6 -14 -10 -4 -9 -6 1 -6 11 -1 11
-4 0 -18 -9 -10 -9 -14 -2 -10 9 6 9 -4 -1 -38 -8 -25 -13 -45 -11 -45 2 0 -3
-23 -10 -51 -13 -48 -13 -50 8 -58 12 -5 23 -5 25 -1 2 4 24 6 50 4 26 -2 42
0 35 4 -6 4 22 6 63 5 51 -1 74 2 74 10 0 7 4 6 10 -3 9 -13 11 -13 20 0 5 8
10 10 10 4 0 -11 44 -10 74 2 11 4 17 4 14 -2 -4 -5 11 -9 32 -9 21 0 36 3 33
8 -3 5 12 6 33 2 65 -11 94 -13 89 -5 -6 9 53 6 62 -4 9 -9 25 -7 19 2 -3 5 1
9 9 9 8 0 15 -3 15 -6 0 -3 17 -7 38 -8 20 -1 52 -4 69 -6 18 -3 30 -1 28 3
-3 4 14 4 37 -2 23 -5 47 -7 55 -4 7 3 13 0 13 -6 0 -6 6 -5 17 3 14 12 15 12
9 0 -7 -10 -3 -12 14 -6 13 4 20 3 17 -2 -4 -5 0 -10 8 -10 8 0 12 4 10 8 -3
4 4 5 15 2 11 -3 18 -9 15 -12 -2 -4 2 -8 10 -8 8 0 12 4 9 9 -6 10 10 11 20
1 3 -4 14 -8 24 -9 14 -2 75 -14 92 -19 3 0 22 -4 43 -8 21 -5 35 -12 32 -17
-3 -4 10 -7 27 -4 18 2 27 1 19 -3 -9 -3 11 -14 48 -25 42 -13 59 -23 54 -31
-4 -7 2 -5 12 3 10 8 16 10 12 3 -8 -12 47 -36 59 -25 4 4 4 1 0 -6 -4 -7 -12
-9 -18 -6 -7 4 -8 2 -4 -5 4 -6 11 -9 16 -6 5 3 11 1 15 -5 4 -6 11 -7 17 -4
7 4 8 2 4 -4 -4 -8 3 -16 18 -22 14 -5 26 -12 26 -15 0 -4 -5 -3 -12 1 -7 4
-8 3 -4 -4 12 -20 31 -13 44 16 27 58 50 91 58 84 4 -4 2 1 -5 11 -11 14 -11
17 1 17 7 0 14 10 15 21 1 12 10 30 19 41 18 19 20 25 31 81 3 15 10 30 16 34
6 4 7 1 2 -7 -5 -9 -4 -11 4 -6 9 6 9 11 -1 24 -8 10 -9 13 -1 9 6 -4 14 -3
18 3 3 5 1 10 -5 10 -7 0 -5 6 4 15 8 9 18 31 22 50 3 20 14 40 23 45 9 5 13
10 9 10 -4 0 0 20 9 45 9 29 19 43 26 38 7 -4 6 1 -2 10 -8 10 -11 20 -7 24 3
3 6 0 6 -7 0 -7 3 -10 8 -6 7 8 9 13 11 46 0 12 8 20 19 20 14 0 15 2 2 10
-12 8 -12 11 3 28 9 10 17 25 17 34 0 8 3 18 7 22 4 3 8 16 10 28 2 11 11 27
21 35 9 8 11 12 5 8 -8 -4 -13 0 -13 10 0 12 5 15 16 11 14 -5 15 -4 4 9 -7 8
-8 15 -2 15 5 0 13 15 17 33 4 17 9 38 10 44 2 7 10 20 19 29 14 13 14 19 4
32 -9 11 -9 14 -1 9 12 -7 23 23 39 101 4 18 11 32 16 32 5 0 6 5 3 10 -3 6
-2 10 3 10 6 0 13 7 16 16 5 14 4 15 -9 4 -13 -11 -14 -10 -9 4 3 9 10 16 16
16 5 0 6 5 3 10 -3 6 -1 10 4 10 6 0 10 3 10 8 -5 22 15 91 24 85 6 -4 7 -1 3
6 -12 19 2 63 17 54 8 -5 8 -2 -1 9 -10 13 -10 18 -1 24 8 5 9 3 4 -6 -5 -9
-4 -11 4 -6 9 6 9 11 -1 24 -11 13 -11 14 1 7 11 -6 13 -4 8 8 -3 10 -2 17 3
17 5 0 7 7 4 15 -4 8 -1 15 5 15 6 0 10 3 9 8 -1 4 4 32 12 62 16 64 14 53 24
108 4 23 12 42 17 42 4 0 6 7 3 15 -4 9 0 15 7 15 11 0 11 3 -1 10 -10 6 -11
10 -3 10 7 0 12 3 12 8 -4 21 2 32 14 26 10 -6 10 -4 0 7 -7 7 -13 17 -13 22
0 4 6 5 13 1 8 -5 8 -2 -2 9 -12 15 -11 17 5 17 13 0 15 3 7 8 -7 4 -10 17 -6
31 4 17 8 19 14 9 6 -9 9 -9 9 -1 0 6 -4 14 -10 18 -5 3 -7 12 -4 20 4 8 11
12 18 8 6 -4 5 1 -3 10 -8 11 -9 17 -3 17 7 0 9 7 5 17 -5 12 -3 14 8 8 11 -7
11 -5 -1 10 -10 12 -10 16 -2 11 10 -6 11 -1 6 18 -3 14 -2 26 2 26 5 0 9 12
10 28 0 15 4 41 7 57 4 17 9 40 11 53 3 13 7 31 10 40 5 16 13 65 21 125 2 16
0 25 -5 22 -6 -3 -7 1 -4 9 3 9 9 14 14 11 4 -2 5 6 3 19 -3 12 0 49 6 81 8
42 8 61 0 66 -7 4 -5 8 5 12 9 4 16 12 16 19 0 9 -3 9 -11 -2 -10 -15 -5 37 8
84 3 12 1 16 -6 12 -6 -4 -9 -2 -6 6 2 7 6 29 9 48 2 19 7 45 10 58 3 12 1 22
-3 22 -5 0 -7 34 -6 75 1 42 -1 78 -5 80 -4 2 -4 25 0 50 4 25 3 48 -2 51 -4
3 -5 17 -2 31 5 18 3 24 -4 19 -8 -5 -10 2 -6 24 4 19 2 30 -5 30 -6 0 -11 5
-11 11 0 5 4 8 9 5 10 -6 3 32 -9 49 -3 6 -5 20 -4 33 0 12 -2 22 -6 22 -5 0
-6 9 -3 20 3 11 1 20 -5 20 -6 0 -10 13 -10 28 1 15 -4 38 -11 50 -7 12 -9 26
-6 31 3 5 -1 15 -8 23 -8 7 -13 23 -12 35 1 12 -2 20 -7 17 -4 -3 -11 13 -14
36 -4 22 -11 40 -16 40 -9 0 -34 59 -30 73 1 4 -5 7 -13 7 -9 0 -12 6 -8 17 4
11 3 14 -5 9 -8 -5 -12 0 -12 13 0 12 -5 21 -12 21 -6 0 -9 3 -5 6 3 3 -3 15
-13 27 -11 11 -17 24 -14 29 3 4 -5 8 -18 9 -13 0 -17 3 -10 6 8 3 -3 20 -32
48 -24 24 -41 46 -38 49 3 3 0 6 -7 6 -7 0 -9 5 -5 12 4 6 3 8 -3 5 -13 -8
-36 17 -26 27 4 4 1 5 -7 1 -9 -3 -23 5 -34 20 -10 14 -24 25 -31 25 -7 0 -15
7 -19 15 -3 8 -12 15 -20 15 -7 0 -16 6 -19 14 -3 8 -19 17 -35 21 -17 3 -33
13 -36 22 -4 8 -13 13 -21 9 -8 -3 -15 -1 -15 4 0 6 -9 10 -19 10 -10 0 -21 7
-24 14 -3 8 -22 18 -41 22 -20 3 -36 10 -36 14 0 4 -13 6 -29 5 -19 -1 -28 2
-24 10 2 7 -7 15 -21 17 -17 3 -23 1 -19 -6 4 -7 1 -7 -7 1 -7 6 -19 9 -28 6
-10 -4 -13 -2 -8 5 5 8 -1 12 -18 12 -13 0 -37 5 -52 10 -21 8 -29 8 -36 -2
-6 -10 -8 -10 -8 1 0 9 -8 12 -25 9 -15 -3 -22 -1 -18 5 4 6 -2 8 -15 5 -12
-4 -22 -1 -22 4 0 6 -12 8 -30 4 -17 -3 -29 -2 -25 3 3 5 -4 7 -15 4 -13 -3
-20 0 -20 8 0 11 -2 11 -10 -1 -8 -13 -10 -13 -10 -1 0 11 -3 12 -11 4 -12
-12 -42 -6 -35 6 2 3 -10 6 -27 7 -18 0 -90 12 -161 27 -70 15 -138 25 -150
22 -15 -5 -17 -3 -8 3 11 7 8 11 -10 15 -36 10 -50 8 -43 -5 4 -7 -1 -4 -9 6
-12 15 -16 16 -16 5 0 -11 -2 -11 -9 -1 -4 7 -23 16 -41 18 -20 4 -30 2 -26
-4 4 -6 -3 -8 -15 -5 -16 5 -18 8 -7 15 8 6 1 7 -21 3 -27 -6 -32 -4 -25 6 6
12 5 12 -9 0 -15 -12 -21 -9 -18 12 0 4 -4 7 -9 7 -6 0 -10 -4 -10 -8 0 -4
-16 -6 -35 -4 -19 2 -33 8 -30 12 3 4 -10 7 -28 5 -17 -1 -36 1 -42 4 -11 6
-14 7 -70 16 -22 4 -65 13 -97 20 -42 10 -59 10 -68 1 -9 -8 -11 -8 -8 1 2 6
0 12 -4 12 -4 1 -28 8 -52 15 -24 7 -50 10 -57 6 -14 -9 -41 -2 -34 9 2 4 -2
8 -10 8 -8 0 -12 -4 -9 -9 3 -4 0 -8 -5 -8 -6 0 -11 7 -11 15 0 8 -5 15 -11
15 -5 0 -7 -5 -4 -10 8 -13 -23 -8 -54 9 -14 8 -21 8 -17 2 5 -7 1 -9 -8 -5
-9 3 -16 11 -16 18 0 6 -5 4 -10 -4 -6 -9 -13 -11 -17 -5 -5 6 -19 11 -33 12
-32 1 -103 14 -111 19 -3 2 -9 1 -13 -3z m2009 -4312 c3 -5 2 -12 -3 -15 -5
-3 -9 1 -9 9 0 17 3 19 12 6z"/>
<path d="M10255 7819 c0 -20 4 -35 9 -32 4 3 6 -15 4 -41 -3 -26 -1 -49 4 -52
4 -3 5 -17 2 -31 -5 -18 -3 -24 5 -19 6 4 11 2 11 -3 0 -6 -3 -11 -7 -11 -5 0
-8 -11 -8 -25 0 -14 5 -25 10 -25 6 0 3 -5 -5 -10 -13 -9 -13 -10 0 -10 13 0
13 -1 0 -10 -9 -6 -10 -10 -3 -10 8 0 9 -9 3 -30 -6 -21 -5 -30 3 -30 7 0 6
-4 -3 -10 -10 -6 -11 -10 -2 -10 6 0 12 -5 12 -11 0 -5 -3 -8 -8 -5 -9 6 -7
-58 3 -75 5 -7 4 -10 -3 -5 -6 3 -13 2 -17 -4 -3 -5 1 -10 11 -10 13 0 14 -3
5 -13 -6 -8 -8 -17 -5 -20 4 -3 1 -27 -5 -53 -10 -38 -10 -49 1 -55 7 -5 8 -9
3 -9 -6 0 -10 -24 -10 -54 0 -30 -3 -52 -7 -49 -5 2 -8 -5 -8 -16 0 -10 -3
-28 -6 -38 -5 -15 -4 -16 6 -3 10 13 11 12 6 -3 -3 -10 -6 -23 -6 -28 0 -6 -4
-8 -9 -5 -10 7 -9 -13 2 -30 3 -6 3 -14 0 -18 -4 -4 -8 -13 -9 -21 -11 -72
-15 -97 -28 -143 -8 -28 -11 -50 -7 -48 4 3 0 -19 -10 -48 -10 -29 -20 -72
-21 -95 -2 -22 -6 -41 -10 -41 -5 0 -8 -5 -8 -11 0 -5 6 -7 13 -3 7 5 6 1 -3
-10 -8 -10 -15 -23 -17 -30 -1 -6 -5 -24 -8 -41 -3 -16 -10 -44 -16 -61 -11
-36 -20 -74 -21 -91 -1 -7 -8 -15 -15 -17 -10 -4 -11 -10 -3 -25 7 -14 7 -22
-2 -27 -7 -5 -8 -2 -3 7 6 11 5 12 -5 2 -11 -10 -11 -15 0 -28 11 -13 11 -16
0 -13 -9 2 -17 -10 -21 -32 -17 -75 -22 -90 -29 -85 -5 3 -6 -5 -2 -17 4 -16
2 -19 -9 -13 -12 8 -12 6 0 -8 11 -14 11 -18 -3 -23 -9 -3 -16 -10 -16 -16 0
-5 6 -6 13 -3 6 4 5 1 -3 -7 -8 -7 -16 -21 -18 -32 -2 -10 -8 -30 -14 -45 -6
-14 -11 -37 -12 -50 -1 -13 -9 -29 -19 -36 -20 -14 -23 -29 -4 -20 6 4 3 -1
-7 -9 -11 -9 -17 -16 -13 -16 3 0 1 -13 -4 -30 -7 -18 -15 -27 -22 -23 -7 4
-5 -2 3 -12 8 -10 10 -16 4 -12 -7 4 -16 -10 -24 -38 -8 -28 -17 -42 -24 -38
-7 4 -7 1 1 -7 9 -10 8 -18 -7 -38 -11 -14 -20 -33 -20 -43 0 -11 -5 -19 -11
-19 -5 0 -8 -4 -5 -9 3 -5 0 -14 -8 -20 -8 -7 -17 -27 -20 -47 -4 -19 -11 -32
-17 -29 -5 4 -9 3 -8 -2 1 -4 -3 -21 -10 -38 -7 -16 -13 -38 -14 -48 -1 -10
-7 -15 -14 -13 -7 3 -12 2 -11 -2 1 -4 -2 -15 -5 -24 -4 -10 -10 -26 -14 -35
-3 -10 -5 -21 -5 -25 1 -5 -2 -8 -8 -8 -5 0 -6 -7 -3 -17 4 -11 3 -14 -5 -9
-7 4 -13 2 -13 -3 -1 -6 -3 -15 -4 -21 -1 -5 -3 -15 -4 -21 0 -5 -7 -7 -13 -3
-8 5 -8 2 1 -10 12 -14 12 -17 0 -14 -8 2 -15 -6 -17 -19 -2 -17 3 -24 22 -29
14 -3 33 -4 41 -1 8 4 17 2 20 -3 3 -4 16 -7 30 -6 13 2 22 0 20 -5 -9 -13 78
-27 94 -15 11 8 13 8 8 0 -4 -7 0 -14 8 -18 8 -3 17 -1 20 4 4 6 12 10 18 10
8 0 8 -3 -1 -9 -10 -6 -9 -10 7 -14 12 -3 19 -2 16 2 -2 4 2 8 10 8 8 0 12 -4
10 -8 -5 -7 19 -19 38 -19 7 0 6 4 -3 10 -9 6 -10 10 -3 10 7 0 16 -6 20 -14
4 -8 22 -17 38 -20 82 -14 171 -42 183 -56 8 -8 11 -9 7 -3 -4 9 3 8 25 -2 16
-8 44 -22 60 -30 17 -8 28 -10 25 -5 -3 6 1 7 9 4 9 -3 14 -10 11 -14 -3 -5
13 -11 35 -15 22 -4 38 -11 35 -15 -3 -5 17 -16 45 -25 28 -9 48 -21 45 -26
-4 -5 1 -6 9 -3 9 3 16 1 16 -4 0 -6 10 -12 23 -14 12 -2 21 -9 19 -16 -1 -7
8 -12 21 -12 13 0 33 -9 45 -20 12 -11 28 -20 36 -20 8 0 18 -4 21 -10 3 -6
-2 -8 -12 -5 -10 3 -3 -2 15 -10 17 -8 32 -21 32 -28 0 -8 4 -7 10 3 8 13 10
12 10 -2 0 -10 7 -18 15 -18 9 0 18 -7 21 -15 4 -8 15 -15 27 -15 11 0 17 -3
14 -7 -7 -6 38 -33 56 -33 5 0 16 -8 24 -17 9 -11 11 -12 7 -3 -6 11 -2 10 13
-2 11 -10 29 -18 40 -18 12 0 23 -6 26 -14 4 -9 14 -12 28 -9 13 4 20 2 16 -3
-3 -6 4 -11 16 -11 17 -2 19 0 7 7 -8 5 -11 10 -6 10 5 0 18 -8 29 -17 11 -10
17 -13 14 -6 -7 12 17 12 29 1 3 -4 13 -4 22 -1 10 4 13 2 8 -5 -4 -7 -2 -12
3 -12 6 0 11 4 11 10 0 6 9 6 24 0 17 -6 26 -5 30 3 3 9 5 9 5 0 1 -7 6 -13
12 -13 5 0 8 4 5 9 -3 5 4 9 17 10 46 1 62 4 74 13 7 6 19 8 27 5 8 -3 17 1
20 9 3 9 10 12 16 9 5 -3 10 -1 10 5 0 7 7 9 16 6 8 -3 12 -2 9 4 -3 6 1 10 9
10 9 0 16 5 16 10 0 6 7 10 15 10 13 0 19 12 16 32 0 4 6 5 14 2 9 -4 22 6 35
28 11 18 23 32 27 31 8 -3 9 1 12 32 0 8 7 14 13 13 7 -2 14 7 16 19 2 14 8
20 18 16 10 -3 12 0 8 10 -3 8 -1 18 5 22 6 3 11 15 11 26 0 11 5 17 10 14 6
-3 10 2 10 13 0 10 3 22 8 26 4 4 7 11 8 14 2 28 17 72 24 72 5 0 6 7 3 17 -5
12 -3 14 7 8 10 -6 12 -2 8 18 -3 15 -2 24 2 22 4 -2 15 33 25 78 10 45 20 87
21 92 2 9 14 76 18 102 1 7 5 16 9 19 4 4 1 14 -6 22 -10 13 -9 14 2 7 11 -6
13 -4 8 8 -3 10 -2 17 3 17 6 0 10 5 10 11 0 5 -4 7 -10 4 -5 -3 -10 1 -10 10
0 9 3 14 8 12 4 -3 7 9 7 26 1 41 14 128 22 140 3 6 1 7 -5 3 -12 -7 -11 3 3
84 1 8 -2 20 -7 27 -5 7 -7 17 -3 23 3 5 3 16 -1 22 -5 7 -7 28 -5 46 2 24 -1
32 -9 27 -7 -5 -9 1 -4 19 4 16 2 26 -4 26 -6 0 -9 13 -7 30 2 20 0 28 -7 24
-7 -5 -9 0 -6 14 4 12 2 25 -4 28 -5 3 -8 15 -5 25 3 11 1 19 -5 19 -6 0 -8 9
-5 20 3 11 1 18 -4 14 -5 -3 -9 4 -9 15 0 12 -4 21 -10 21 -5 0 -10 5 -10 11
0 5 5 7 11 3 6 -3 4 5 -5 18 -9 14 -13 28 -10 31 4 4 -1 10 -11 14 -18 6 -18
7 1 14 16 6 16 8 2 8 -11 1 -15 6 -12 16 4 8 1 15 -6 15 -7 0 -10 6 -7 13 3 7
-1 21 -9 31 -7 11 -11 23 -8 27 3 5 0 9 -6 9 -7 0 -10 7 -6 15 3 8 1 15 -5 15
-6 0 -9 6 -6 14 3 8 -1 17 -8 20 -9 3 -12 12 -8 22 5 13 3 15 -7 9 -10 -6 -12
-3 -8 13 4 12 2 22 -3 22 -5 0 -9 7 -9 15 0 8 -4 15 -9 15 -6 0 -8 9 -6 20 2
11 -1 19 -8 17 -6 -1 -12 4 -13 11 -1 6 -3 14 -4 17 -1 3 -3 9 -4 15 0 5 -9
19 -19 31 -10 11 -16 27 -13 35 3 7 0 13 -6 11 -6 -1 -15 13 -20 31 -5 20 -15
32 -26 32 -15 0 -15 2 -2 10 13 9 7 14 -12 11 -4 0 -5 6 -2 14 4 8 1 15 -5 15
-6 0 -10 6 -9 13 2 6 -2 11 -9 10 -7 -2 -10 4 -7 12 4 8 1 15 -5 15 -6 0 -11
7 -11 15 0 8 -4 15 -10 15 -5 0 -6 7 -3 17 4 11 3 14 -5 9 -7 -4 -12 -1 -12 8
0 9 -4 16 -10 16 -5 0 -10 7 -10 15 0 8 -8 15 -17 16 -12 0 -13 2 -5 6 9 3 5
12 -13 29 -14 13 -23 24 -20 24 3 0 -2 13 -11 29 -10 17 -21 28 -26 25 -4 -3
-8 2 -8 10 0 8 -10 22 -22 30 -12 9 -19 16 -14 16 5 0 -3 11 -17 24 -14 13
-23 27 -20 30 4 3 1 6 -6 6 -7 0 -9 5 -5 12 5 7 2 9 -9 5 -11 -4 -14 -2 -10 9
3 9 -1 14 -12 14 -9 0 -14 4 -11 8 3 5 -6 16 -20 26 -13 11 -24 25 -24 32 0 8
-8 14 -17 14 -9 0 -14 3 -10 6 8 8 -46 63 -56 57 -4 -2 -7 -1 -6 4 4 21 -3 32
-21 38 -11 3 -20 14 -20 23 0 15 -2 15 -10 2 -9 -13 -10 -13 -11 0 -1 8 0 20
1 25 1 6 -2 7 -6 3 -4 -4 -17 4 -30 17 -13 14 -28 25 -34 25 -6 0 -9 4 -6 9 3
4 -6 13 -19 19 -14 7 -25 16 -25 22 0 5 -8 10 -17 10 -15 0 -16 2 -3 10 12 8
11 10 -5 10 -11 0 -27 9 -35 20 -8 11 -20 20 -28 20 -7 0 -11 4 -8 9 3 5 -4
11 -15 14 -13 4 -18 10 -13 18 4 8 3 10 -4 5 -7 -4 -24 5 -39 21 -14 15 -23
21 -18 13 5 -10 1 -8 -13 4 -12 10 -19 24 -15 30 4 6 -2 4 -13 -4 -10 -8 -16
-10 -12 -6 8 9 -31 43 -44 38 -5 -1 -8 3 -8 8 0 6 -7 10 -15 10 -9 0 -18 7
-21 15 -4 8 -12 15 -20 15 -8 0 -14 5 -14 11 0 6 -7 8 -16 5 -8 -3 -12 -2 -9
4 3 6 0 10 -7 10 -8 0 -21 9 -31 20 -9 11 -24 21 -32 21 -29 3 -33 4 -42 13
-5 5 -3 6 5 2 6 -4 12 -3 12 2 0 6 -16 13 -35 16 -20 4 -33 11 -30 15 2 5 -3
11 -13 13 -14 4 -17 -2 -17 -33z m-448 -2745 c-3 -3 -12 -4 -19 -1 -8 3 -5 6
6 6 11 1 17 -2 13 -5z"/>
<path d="M1777 7680 c-9 -11 -14 -20 -10 -20 4 0 -2 -7 -13 -15 -10 -8 -15
-15 -11 -15 5 0 1 -7 -7 -16 -9 -8 -16 -22 -16 -30 0 -8 -6 -14 -14 -14 -7 0
-16 -9 -19 -21 -4 -14 -10 -18 -19 -13 -10 6 -9 3 1 -10 12 -15 12 -17 0 -14
-8 2 -13 -2 -12 -9 2 -6 -6 -15 -17 -18 -10 -3 -17 -12 -14 -18 2 -7 -3 -21
-12 -32 -8 -11 -12 -14 -8 -6 4 9 3 12 -4 7 -6 -3 -14 -20 -17 -37 -5 -21 -10
-27 -15 -19 -5 8 -10 2 -15 -18 -3 -18 -12 -30 -18 -29 -6 1 -11 -4 -12 -11 0
-7 -7 -17 -15 -22 -8 -5 -11 -10 -6 -10 5 0 2 -8 -7 -18 -10 -10 -14 -22 -10
-26 5 -4 1 -6 -7 -4 -9 2 -16 -6 -18 -20 -2 -12 -12 -27 -23 -33 -11 -5 -17
-14 -14 -19 3 -5 -3 -13 -12 -19 -10 -6 -14 -11 -10 -11 4 0 2 -6 -5 -14 -7
-8 -16 -12 -20 -9 -5 2 -8 -3 -8 -11 0 -8 -7 -22 -16 -30 -8 -9 -13 -16 -9
-16 5 0 -3 -12 -32 -45 -7 -7 -13 -18 -13 -24 0 -6 -8 -11 -17 -11 -15 0 -16
-2 -3 -10 13 -9 7 -14 -12 -11 -5 0 -8 -8 -8 -19 0 -11 -5 -20 -11 -20 -5 0
-8 -4 -5 -9 3 -5 -1 -11 -9 -15 -8 -3 -15 -11 -15 -18 0 -8 -9 -20 -19 -27
-11 -8 -17 -21 -13 -29 3 -10 1 -13 -6 -8 -7 4 -14 -3 -18 -19 -3 -14 -12 -25
-20 -25 -8 0 -13 -3 -12 -7 3 -15 -14 -43 -23 -37 -8 5 -13 -9 -10 -28 0 -5
-4 -8 -10 -8 -5 0 -8 -4 -5 -8 3 -5 -4 -15 -16 -23 -11 -8 -24 -24 -29 -37 -5
-13 -13 -21 -18 -18 -5 4 -8 -2 -7 -11 3 -19 -15 -43 -26 -36 -4 2 -5 -3 -2
-11 3 -9 1 -16 -4 -16 -6 0 -14 -9 -17 -20 -4 -11 -11 -18 -16 -15 -5 4 -9 -1
-9 -9 0 -8 -7 -22 -16 -30 -8 -9 -12 -22 -8 -28 4 -7 4 -10 -1 -6 -11 10 -56
-52 -48 -65 3 -6 1 -7 -4 -4 -10 6 -28 -19 -25 -35 1 -4 -7 -10 -18 -13 -11
-4 -18 -10 -15 -15 3 -5 -3 -18 -15 -30 -11 -11 -20 -27 -20 -36 0 -8 -4 -12
-10 -9 -5 3 -10 -1 -10 -9 0 -9 -4 -16 -10 -16 -5 0 -10 -9 -10 -20 0 -11 -7
-23 -15 -26 -8 -4 -15 -15 -15 -25 0 -10 -4 -19 -10 -19 -5 0 -7 -8 -3 -17 4
-11 2 -15 -3 -10 -5 5 -16 -14 -26 -45 -9 -29 -20 -52 -25 -51 -5 1 -10 -9
-11 -23 -5 -55 -7 -64 -13 -64 -11 0 -32 -117 -24 -131 6 -8 4 -10 -5 -4 -10
6 -12 1 -8 -19 3 -14 1 -26 -3 -26 -5 0 -9 -5 -9 -11 0 -5 6 -7 13 -3 8 5 8 2
-2 -9 -11 -14 -11 -17 0 -18 8 0 5 -4 -6 -9 -11 -5 -14 -9 -7 -9 8 -1 11 -11
7 -32 -3 -17 0 -37 6 -45 10 -12 8 -13 -7 -7 -16 6 -17 5 -6 -9 8 -10 10 -26
6 -44 -5 -19 -4 -25 5 -20 8 5 9 -3 5 -28 -3 -22 -1 -36 5 -36 6 0 11 -5 11
-11 0 -5 -5 -7 -11 -3 -6 3 -3 -8 6 -26 9 -18 12 -29 6 -26 -7 4 -8 1 -5 -8 3
-9 11 -16 16 -16 6 0 8 -11 6 -25 -3 -14 -1 -25 3 -25 5 0 8 -3 7 -7 -4 -17
14 -73 24 -73 6 0 8 -9 5 -20 -3 -11 -1 -20 4 -20 5 0 9 -7 9 -15 0 -8 5 -15
11 -15 6 0 9 -9 6 -20 -3 -11 -1 -18 4 -14 8 5 13 -9 10 -28 0 -5 4 -8 10 -8
6 0 9 -7 5 -15 -3 -8 0 -14 6 -12 7 1 12 -3 13 -10 0 -7 8 -21 17 -32 9 -11
14 -22 11 -25 -4 -3 -1 -6 5 -6 7 0 12 -7 12 -15 0 -8 5 -15 11 -15 6 0 9 -7
5 -15 -3 -9 0 -15 10 -15 8 0 12 -4 9 -10 -3 -5 -1 -10 4 -10 6 0 11 -5 11
-10 0 -6 12 -22 28 -36 15 -14 21 -23 15 -19 -7 3 -13 1 -13 -4 0 -6 7 -11 16
-11 8 0 13 -3 11 -7 -7 -11 19 -33 29 -25 4 4 4 1 0 -6 -4 -6 -1 -19 8 -27 11
-11 16 -12 19 -2 3 6 6 -1 6 -16 1 -16 5 -26 11 -22 5 3 18 -8 28 -24 10 -17
22 -28 25 -24 7 6 11 -13 7 -32 -1 -5 1 -7 5 -3 9 8 35 -14 28 -24 -2 -5 2 -8
10 -8 7 0 23 -13 35 -30 13 -16 30 -30 38 -30 10 0 14 -6 11 -14 -3 -8 2 -16
15 -19 13 -4 17 -10 12 -18 -4 -8 -3 -10 5 -5 6 4 14 0 17 -8 3 -9 10 -13 15
-10 5 3 9 -2 9 -11 0 -9 4 -14 9 -11 5 3 11 -1 15 -9 3 -8 13 -15 21 -15 9 0
14 -4 11 -9 -6 -9 22 -26 36 -23 4 1 5 -5 2 -13 -4 -10 0 -15 12 -15 11 -1 30
-14 44 -30 13 -17 30 -30 37 -30 8 0 16 -7 19 -15 4 -8 12 -15 19 -15 7 0 15
-7 19 -15 3 -8 14 -15 25 -15 14 0 19 -5 15 -15 -4 -10 0 -15 15 -15 12 0 21
-6 21 -15 0 -8 9 -15 20 -15 11 0 26 -11 35 -24 11 -16 23 -22 40 -20 14 1 25
-2 25 -8 0 -6 -8 -7 -17 -4 -40 16 15 -21 75 -49 17 -8 32 -20 32 -25 0 -6 9
-10 21 -10 11 0 18 -4 15 -9 -3 -4 6 -13 19 -19 14 -7 25 -16 25 -22 0 -5 9
-10 20 -10 11 0 20 -5 20 -11 0 -5 5 -7 10 -4 5 3 10 1 10 -5 0 -6 4 -8 10 -5
5 3 10 1 10 -4 0 -6 7 -11 15 -11 8 0 15 -4 15 -9 0 -5 16 -15 34 -22 19 -7
33 -16 30 -21 -3 -4 8 -11 25 -14 19 -4 31 -13 31 -23 0 -14 2 -14 10 -1 5 8
10 10 10 3 0 -6 13 -16 30 -22 17 -5 30 -14 30 -19 0 -5 15 -12 33 -16 25 -5
29 -9 17 -16 -8 -5 -10 -10 -5 -11 48 -4 86 -19 79 -31 -5 -7 0 -9 14 -6 12 4
20 2 16 -3 -3 -5 0 -9 6 -9 6 0 22 -8 37 -17 14 -10 33 -18 41 -19 8 -2 18 -6
21 -11 10 -13 50 -33 66 -33 10 0 13 -5 9 -12 -5 -8 -2 -9 9 -5 10 3 17 2 17
-3 0 -5 12 -13 28 -16 15 -4 38 -15 51 -26 13 -10 30 -18 37 -18 8 0 14 -4 14
-10 0 -5 8 -10 18 -10 9 0 26 -7 36 -15 10 -8 23 -12 27 -9 5 3 9 0 9 -5 0 -6
5 -11 11 -11 5 0 7 6 3 13 -4 7 -3 9 2 4 5 -5 9 -13 9 -19 0 -6 11 -13 25 -15
13 -2 27 -7 30 -12 3 -4 13 -7 22 -6 10 2 16 0 15 -3 -1 -4 1 -8 6 -9 4 -2 20
-9 36 -17 16 -9 31 -12 35 -9 3 4 6 -1 6 -10 0 -10 8 -17 20 -17 19 0 71 -20
80 -31 3 -3 26 -12 53 -20 26 -7 47 -17 47 -22 0 -4 4 -5 10 -2 6 3 10 1 10
-5 0 -7 7 -10 15 -6 8 3 15 2 15 -3 0 -8 34 -21 54 -20 5 1 13 -7 18 -16 8
-13 12 -14 26 -3 10 8 13 8 9 1 -5 -7 3 -14 22 -18 16 -3 39 -15 52 -26 18
-15 25 -17 37 -6 12 9 14 9 9 0 -5 -8 2 -15 20 -19 62 -13 67 -16 52 -25 -8
-5 -9 -9 -3 -9 5 0 15 5 22 12 9 9 12 8 12 -5 0 -9 8 -17 18 -18 31 -1 53 -7
75 -21 31 -19 52 -16 50 7 -1 11 4 23 10 27 9 6 9 8 0 8 -7 0 -13 7 -13 16 0
8 3 13 8 11 4 -3 7 9 8 26 1 18 4 43 8 57 4 14 8 31 8 38 1 6 8 12 17 12 14 0
14 2 1 10 -8 5 -10 10 -4 10 9 0 36 64 38 92 1 3 5 10 10 15 5 5 6 2 2 -7 -4
-8 -1 -6 8 4 8 10 13 23 10 28 -3 4 2 11 10 14 9 3 13 10 10 15 -3 5 0 9 5 9
6 0 10 3 10 8 -1 4 -1 16 0 27 1 15 3 17 10 6 7 -10 10 -8 16 10 4 13 16 32
26 42 11 10 19 28 19 40 0 16 3 18 9 9 6 -10 10 -8 14 8 3 13 10 19 17 15 6
-3 9 -3 8 2 -4 14 13 53 23 53 6 0 7 5 4 10 -4 6 -1 9 7 8 7 -2 12 2 11 9 -2
8 4 10 14 6 10 -4 14 -2 9 5 -8 13 38 64 50 54 4 -4 2 2 -6 12 -9 11 -10 17
-3 13 12 -8 53 20 53 36 0 11 26 37 38 37 5 0 12 9 15 21 3 12 10 18 17 14 6
-4 9 -1 8 7 -2 7 4 12 12 10 8 -2 12 0 8 4 -4 4 4 17 17 30 14 13 25 28 25 34
0 6 4 9 8 6 5 -3 19 8 32 25 14 16 30 29 37 29 7 0 13 10 13 23 0 16 3 18 9 8
7 -11 10 -9 16 8 3 12 11 19 16 16 5 -4 9 -1 9 4 0 6 8 11 18 11 11 0 13 3 6
8 -9 5 -8 11 2 20 11 10 14 10 14 0 0 -6 6 -3 14 7 8 11 12 23 9 28 -2 4 -1 7
4 6 23 -4 43 2 43 14 0 13 40 52 40 39 0 -4 5 1 11 11 6 9 14 15 19 12 5 -3
12 0 16 6 5 8 3 9 -7 4 -12 -8 -12 -6 0 8 7 9 17 14 22 11 5 -3 9 0 9 5 0 6 7
11 15 11 8 0 15 5 15 11 0 5 -6 7 -12 3 -9 -5 -8 -2 1 10 13 15 12 18 -7 23
-12 3 -22 12 -22 19 0 8 -5 14 -11 14 -5 0 -8 4 -5 9 3 5 -3 11 -14 14 -14 3
-18 11 -15 27 4 19 2 20 -12 8 -15 -11 -16 -11 -10 5 4 11 1 17 -9 17 -8 0
-12 5 -9 10 3 6 2 10 -4 10 -5 0 -12 9 -16 20 -3 11 -9 19 -13 17 -4 -1 -8 1
-9 6 -5 13 -48 52 -55 50 -4 -2 -5 4 -2 12 4 10 0 15 -11 15 -9 0 -13 5 -10
10 3 6 1 10 -4 10 -6 0 -11 5 -11 10 0 13 -37 50 -51 50 -5 0 -8 4 -4 9 3 6
-3 14 -12 20 -10 6 -13 11 -8 11 6 0 -6 14 -25 31 -19 17 -28 28 -20 24 8 -4
3 4 -12 17 -16 14 -28 30 -28 37 0 6 -7 11 -16 11 -8 0 -12 4 -9 10 3 6 2 10
-4 10 -5 0 -18 13 -27 29 -10 17 -21 28 -25 25 -4 -2 -10 0 -14 6 -3 5 0 10 7
10 7 1 0 8 -15 16 -15 8 -25 19 -22 24 4 6 1 10 -5 10 -6 0 -8 5 -5 10 3 6 -1
10 -9 10 -9 0 -16 7 -16 15 0 8 -5 15 -11 15 -5 0 -7 4 -4 10 4 6 -1 7 -11 3
-12 -4 -15 -3 -10 5 4 7 2 12 -5 12 -7 0 -9 3 -5 7 3 4 -4 13 -16 20 -14 7
-17 12 -9 13 11 0 9 4 -4 14 -11 8 -24 12 -29 9 -5 -4 -6 -1 -2 5 4 7 2 12 -4
12 -7 0 -10 7 -6 15 3 8 1 15 -5 15 -5 0 -20 10 -32 21 -12 12 -15 18 -7 14 8
-4 2 5 -15 21 -16 16 -34 28 -39 26 -5 -2 -3 4 4 13 11 13 11 16 0 13 -7 -2
-19 8 -26 20 -8 17 -13 20 -17 10 -3 -7 -6 -3 -6 10 -1 14 -7 22 -18 22 -15 0
-16 2 -3 10 13 9 13 10 0 11 -8 1 -19 1 -23 0 -5 -1 -6 3 -3 8 4 5 -10 25 -30
45 -22 21 -33 40 -28 47 4 7 3 10 -3 6 -12 -8 -36 17 -26 26 3 4 -1 7 -10 7
-9 0 -17 5 -17 10 0 6 -12 23 -27 37 -16 15 -22 23 -14 18 10 -5 12 -4 7 3 -4
7 -14 12 -22 12 -8 0 -13 6 -12 13 2 6 -3 11 -11 9 -9 -2 -11 3 -7 13 3 9 2
14 -2 12 -4 -3 -13 1 -20 9 -7 8 -10 14 -6 14 4 0 -5 11 -20 25 -14 13 -26 29
-26 35 0 5 -7 10 -16 10 -8 0 -13 4 -9 9 3 6 -4 15 -15 21 -11 6 -20 20 -20
30 0 11 -3 19 -7 19 -20 -3 -33 2 -33 14 0 7 -16 31 -36 53 -20 21 -44 50 -53
64 -26 41 -45 60 -58 60 -7 0 -10 7 -7 15 4 10 0 15 -12 15 -9 0 -15 3 -11 6
8 8 -25 44 -40 44 -7 0 -10 7 -7 15 4 10 0 15 -11 15 -9 0 -13 5 -10 10 3 6 1
10 -4 10 -6 0 -11 6 -11 14 0 8 -9 18 -20 21 -11 4 -18 11 -15 16 4 5 1 9 -5
9 -6 0 -15 11 -22 25 -6 13 -15 22 -19 19 -5 -3 -9 -1 -9 5 0 6 -10 19 -22 31
-12 11 -18 20 -14 20 4 0 1 6 -6 14 -7 8 -16 12 -20 9 -5 -2 -8 6 -8 19 0 18
-2 20 -10 8 -8 -13 -10 -13 -10 1 0 9 -17 33 -37 55 -21 21 -32 34 -24 30 10
-6 12 -5 7 2 -4 7 -14 12 -22 12 -8 0 -12 5 -9 10 3 6 1 10 -4 10 -6 0 -11 7
-11 15 0 8 -6 15 -14 15 -8 0 -18 5 -22 12 -5 7 -3 8 6 3 9 -5 11 -4 6 3 -4 7
-14 12 -22 12 -8 0 -13 3 -11 8 1 4 -9 18 -22 31 -19 19 -21 25 -10 33 12 7
11 9 -1 7 -25 -2 -40 1 -38 9 3 14 -14 42 -23 36 -8 -5 -13 9 -10 28 0 4 -8
10 -19 13 -11 4 -20 10 -20 15 0 15 -54 70 -70 70 -12 0 -12 2 -2 9 11 7 10 9
-3 15 -9 3 -13 10 -10 16 3 5 2 10 -3 10 -5 0 -19 9 -32 20 -13 11 -19 20 -15
20 4 0 -4 11 -19 25 -15 14 -24 30 -20 37 4 6 3 8 -3 5 -6 -4 -19 4 -29 18
-10 13 -21 22 -26 19 -4 -3 -5 2 -2 10 4 11 0 16 -11 16 -9 0 -13 5 -10 10 3
6 2 10 -4 10 -5 0 -18 14 -28 30 -9 17 -23 30 -31 30 -7 0 -10 5 -7 10 3 6 -1
13 -9 16 -9 3 -14 10 -11 14 3 4 -2 11 -11 14 -8 3 -12 10 -9 16 3 5 -1 10
-10 10 -8 0 -18 7 -21 15 -4 8 -14 15 -23 15 -14 0 -14 2 -1 10 13 8 11 11 -7
16 -13 4 -23 10 -23 16 0 5 -9 18 -20 30 -10 12 -16 26 -13 32 4 6 -1 5 -10
-2 -14 -12 -16 -11 -12 8 2 13 2 20 -2 17 -6 -6 -36 19 -31 26 2 2 -14 20 -34
39 -21 19 -38 40 -38 47 0 6 -8 11 -17 11 -15 0 -16 2 -3 10 10 6 11 10 3 10
-13 0 -53 35 -53 46 0 12 -28 33 -35 26 -5 -4 -5 -2 -2 4 4 7 -13 32 -37 57
-25 25 -42 48 -39 51 4 3 4 6 2 6 -3 0 -12 -9 -22 -20z"/>
<path d="M9933 5868 c-2 -18 0 -20 7 -8 12 18 13 30 2 30 -4 0 -9 -10 -9 -22z"/>
<path d="M8916 5055 c-9 -26 -7 -32 5 -12 6 10 9 21 6 23 -2 3 -7 -2 -11 -11z"/>
<path d="M659 4183 c-1 -5 -1 -16 0 -25 2 -11 -5 -18 -16 -18 -14 0 -15 -2 -5
-9 11 -7 11 -9 -1 -14 -8 -3 -14 -16 -13 -29 1 -13 -2 -29 -7 -35 -5 -7 -7
-22 -4 -33 3 -11 1 -18 -4 -14 -5 3 -9 -2 -9 -11 0 -10 5 -14 13 -10 6 4 4 0
-5 -8 -21 -16 -24 -32 -5 -21 6 4 5 -1 -4 -12 -22 -26 -31 -54 -17 -54 7 0 7
-4 1 -12 -14 -18 -23 -59 -12 -52 5 3 9 0 9 -5 0 -6 -8 -11 -17 -11 -15 0 -16
-2 -3 -10 12 -8 13 -11 1 -19 -11 -7 -11 -9 0 -14 8 -3 9 -6 3 -6 -7 -1 -9
-12 -6 -27 4 -21 2 -25 -9 -19 -11 6 -11 5 -2 -5 8 -9 8 -20 1 -41 -6 -16 -8
-38 -5 -49 3 -12 1 -18 -5 -14 -6 4 -8 1 -6 -7 3 -8 1 -24 -3 -37 -6 -15 -5
-21 1 -17 7 4 8 -5 4 -27 -3 -18 -7 -42 -8 -54 -2 -11 -7 -27 -11 -34 -5 -9
-4 -11 3 -6 8 5 12 0 12 -13 0 -12 -5 -21 -12 -21 -9 0 -9 -3 0 -12 7 -7 8
-17 1 -30 -6 -12 -6 -18 1 -18 5 0 10 -7 10 -16 0 -8 -4 -12 -10 -9 -5 3 -10
1 -10 -4 0 -6 4 -11 10 -11 6 0 6 -9 0 -25 -6 -16 -6 -26 1 -31 8 -4 7 -9 -2
-15 -10 -6 -11 -9 -1 -9 6 0 12 -5 12 -11 0 -5 -5 -7 -12 -3 -7 5 -8 3 -2 -7
5 -8 7 -22 5 -33 -2 -12 1 -16 10 -11 8 6 10 4 4 -5 -13 -21 -14 -80 -1 -73 6
4 5 0 -2 -9 -7 -9 -9 -18 -5 -21 4 -3 8 -28 8 -56 0 -28 4 -51 8 -51 5 0 7
-12 6 -28 -2 -15 1 -33 5 -41 7 -10 5 -12 -5 -6 -12 8 -12 6 0 -8 7 -9 10 -17
6 -17 -4 0 -1 -8 6 -17 10 -11 10 -14 2 -9 -7 4 -13 2 -13 -3 0 -6 5 -11 11
-11 7 0 9 -10 5 -24 -3 -14 -1 -28 5 -31 6 -4 8 -13 5 -21 -3 -8 0 -14 7 -14
8 0 8 -3 -2 -9 -11 -7 -10 -13 3 -34 10 -14 15 -36 12 -50 -2 -14 0 -27 5 -29
5 -2 10 -22 12 -44 1 -23 5 -40 9 -37 8 4 12 -19 9 -46 -2 -7 2 -10 7 -7 5 3
10 -4 10 -17 0 -29 5 -51 14 -57 4 -3 8 -17 10 -32 2 -14 10 -34 18 -44 13
-16 13 -17 0 -9 -13 8 -13 6 -2 -8 8 -9 10 -22 6 -28 -4 -8 -3 -9 4 -5 8 5 12
-2 12 -18 0 -14 5 -26 11 -26 5 0 7 -4 4 -10 -3 -5 -2 -10 4 -10 6 0 8 -7 5
-15 -4 -8 -1 -15 6 -15 6 0 8 -4 5 -10 -3 -5 -1 -10 5 -10 6 0 9 -4 6 -9 -3
-5 1 -22 9 -37 8 -16 15 -35 15 -42 0 -8 5 -10 13 -6 6 4 9 4 5 -1 -4 -4 -2
-15 5 -23 10 -13 9 -14 -1 -8 -11 7 -11 4 -1 -12 7 -12 16 -19 20 -16 5 2 6
-4 4 -15 -2 -10 6 -29 18 -42 12 -13 20 -24 18 -24 -2 0 -1 -10 3 -23 5 -13
12 -20 19 -15 9 5 9 3 0 -8 -10 -12 -9 -18 6 -29 11 -7 17 -20 13 -28 -3 -9
-1 -13 5 -9 6 4 18 -13 29 -38 10 -24 20 -42 22 -40 3 2 14 -13 24 -35 11 -22
24 -40 29 -40 4 0 5 -7 2 -17 -4 -11 -3 -14 5 -9 7 4 12 1 12 -8 0 -9 5 -16
10 -16 6 0 10 -7 10 -15 0 -8 8 -15 17 -15 9 0 14 -3 11 -6 -7 -6 39 -54 52
-54 6 0 10 -7 10 -16 0 -8 4 -13 9 -9 5 3 16 -3 23 -13 7 -10 21 -21 31 -25
10 -4 15 -11 12 -17 -3 -5 3 -10 14 -10 12 0 21 -7 21 -15 0 -8 3 -14 7 -14
21 3 33 -2 33 -16 0 -14 12 -19 33 -16 4 0 7 -6 7 -14 0 -8 7 -15 16 -15 8 0
13 -4 9 -9 -3 -6 4 -8 15 -6 11 2 18 0 15 -5 -3 -5 4 -11 15 -15 11 -4 18 -10
15 -15 -3 -5 6 -12 20 -16 14 -3 25 -10 25 -16 0 -5 5 -6 10 -3 6 3 10 2 10
-2 0 -5 10 -14 23 -19 12 -6 15 -8 7 -6 -32 7 6 -17 40 -26 19 -5 34 -14 33
-19 -1 -6 16 -13 37 -17 22 -3 40 -11 40 -16 0 -11 35 -27 76 -34 15 -3 29 -8
33 -12 3 -4 -2 -4 -12 -1 -12 4 -16 3 -11 -4 3 -6 15 -9 25 -6 11 3 19 2 19
-3 0 -6 34 -16 72 -21 4 0 34 -7 65 -14 34 -8 59 -10 61 -4 2 5 8 9 13 9 6 0
8 -4 5 -9 -6 -10 63 -9 79 1 6 3 22 5 38 3 15 -2 27 1 27 5 0 5 9 7 20 5 11
-2 20 0 20 6 0 5 9 9 20 9 11 0 20 4 20 10 0 14 67 43 81 34 7 -4 9 -3 6 3 -7
12 48 75 57 65 3 -3 6 0 6 6 0 7 9 21 20 32 11 11 20 28 20 38 0 13 2 14 9 4
6 -10 10 -3 15 22 4 20 11 34 15 31 5 -3 12 2 15 11 4 9 2 13 -5 8 -6 -3 -4 4
4 17 8 13 18 38 22 54 7 27 8 28 15 10 6 -14 9 -15 9 -4 1 8 -4 20 -10 26 -8
8 -7 13 2 18 8 6 10 4 4 -6 -5 -8 -4 -10 0 -6 5 4 10 13 11 20 1 7 5 20 9 29
5 12 2 18 -6 18 -9 1 -8 4 4 11 15 9 16 13 5 27 -8 10 -9 13 -1 9 7 -5 11 -1
11 10 -1 10 2 29 6 43 6 19 5 21 -3 10 -15 -21 -14 -10 4 39 16 45 15 42 15
72 0 13 4 18 13 13 9 -5 9 -4 0 6 -13 14 -6 43 8 34 5 -3 6 2 3 11 -4 8 -1 21
5 29 7 8 11 18 9 22 -1 5 3 18 9 29 5 11 16 44 23 72 6 29 16 51 20 48 5 -3 7
4 5 15 -2 11 0 20 5 20 4 0 14 23 21 51 9 36 15 45 20 32 4 -13 8 -7 13 22 4
22 12 46 18 53 6 6 7 12 4 12 -6 0 5 16 30 43 6 6 9 21 7 32 -4 14 -2 16 5 7
6 -10 13 0 22 33 8 29 16 42 21 34 5 -8 10 1 14 25 5 26 12 36 21 32 9 -3 14
2 14 13 0 11 3 27 6 36 5 13 8 14 15 3 6 -9 9 -7 9 9 0 12 6 28 13 35 23 25
67 94 67 107 0 7 5 9 10 6 6 -3 10 0 10 8 0 8 7 17 15 21 8 3 15 13 15 21 0 9
3 14 8 12 4 -3 7 6 7 19 0 15 -5 22 -12 19 -7 -2 -13 -1 -13 4 0 4 -6 8 -12 8
-32 2 -120 31 -127 42 -5 7 -11 12 -15 12 -16 -1 -67 12 -72 20 -2 4 -12 5
-21 2 -12 -5 -15 -2 -11 9 4 8 1 15 -8 15 -7 0 -11 -4 -8 -9 3 -4 0 -8 -5 -8
-6 0 -11 5 -11 11 0 6 -9 9 -20 6 -11 -3 -18 -1 -15 3 3 4 -20 16 -50 25 -34
11 -52 22 -48 29 4 6 -2 4 -13 -4 -10 -8 -16 -10 -11 -5 8 10 -45 35 -75 35
-10 0 -16 5 -13 10 3 6 -1 10 -9 10 -8 0 -36 12 -62 26 -25 14 -43 21 -40 15
4 -6 3 -11 -2 -11 -6 0 -12 7 -16 15 -3 8 -15 15 -26 15 -11 0 -20 4 -20 10 0
5 -7 6 -17 3 -12 -5 -14 -3 -8 7 6 10 4 12 -8 7 -10 -3 -17 -2 -17 3 0 5 -16
12 -35 16 -19 3 -33 10 -30 14 3 5 1 11 -5 15 -5 3 -10 1 -10 -5 0 -7 -7 -5
-16 4 -8 9 -22 16 -30 16 -8 0 -12 5 -9 10 4 6 3 10 -2 9 -4 -1 -24 4 -43 12
-19 7 -38 12 -42 11 -5 -1 -8 6 -9 15 0 12 -2 13 -6 5 -4 -10 -8 -10 -17 2 -6
9 -21 17 -33 19 -12 2 -26 7 -30 12 -5 4 -2 5 5 1 6 -4 12 -2 12 3 0 6 -9 11
-21 11 -11 0 -32 9 -46 20 -14 11 -36 20 -49 20 -15 0 -24 6 -24 15 0 8 -11
17 -25 21 -15 4 -22 11 -18 18 4 6 -2 4 -12 -4 -10 -8 -16 -10 -12 -3 4 7 -1
14 -13 18 -11 3 -20 10 -20 15 0 5 -7 6 -17 3 -10 -4 -14 -2 -10 4 7 12 -40
36 -54 28 -5 -3 -6 1 -3 9 4 10 -2 16 -18 18 -13 2 -22 9 -21 15 2 7 -6 10
-17 8 -12 -2 -18 0 -15 6 4 5 -1 9 -10 9 -9 0 -13 4 -10 10 4 6 -1 7 -11 3
-12 -4 -15 -3 -10 5 4 8 0 12 -11 12 -10 0 -26 9 -36 20 -9 11 -23 20 -31 20
-7 0 -22 11 -32 25 -10 14 -24 25 -31 25 -7 0 -24 11 -39 25 -14 13 -31 22
-37 18 -6 -4 -8 0 -4 10 3 9 3 16 -1 15 -15 -3 -48 17 -75 44 -15 15 -31 28
-35 28 -4 0 -14 9 -22 19 -7 11 -17 18 -22 15 -4 -3 -8 2 -8 10 0 9 -3 15 -7
15 -20 -3 -33 2 -31 13 2 7 -2 12 -9 13 -17 0 -53 41 -45 51 4 4 2 4 -5 1 -6
-4 -20 4 -31 18 -11 14 -25 25 -32 25 -6 0 -8 5 -5 10 3 6 2 10 -3 10 -14 0
-62 47 -55 54 4 3 1 6 -5 6 -6 0 -24 12 -39 27 -15 14 -22 23 -14 18 10 -5 12
-4 7 3 -4 7 -14 12 -22 12 -8 0 -14 7 -14 16 0 9 -5 12 -12 8 -8 -5 -9 -2 -5
10 4 10 3 15 -3 11 -6 -3 -10 -1 -10 4 0 6 -7 11 -15 11 -8 0 -14 5 -13 12 2
7 -2 12 -9 13 -6 0 -15 4 -20 9 -4 5 -3 6 4 2 6 -3 14 -2 18 4 3 5 0 10 -7 10
-16 0 -49 36 -41 44 4 3 -1 6 -11 6 -9 0 -15 4 -12 9 3 5 -1 14 -9 21 -8 7
-12 16 -9 21 3 5 -2 9 -10 9 -9 0 -17 -3 -17 -7z m-62 -275 c-3 -8 -6 -5 -6 6
-1 11 2 17 5 13 3 -3 4 -12 1 -19z"/>
</g>
</svg>
