<svg width="4184" height="71" viewBox="0 0 4184 71" fill="none" xmlns="http://www.w3.org/2000/svg">
<g clip-path="url(#clip0_330_72)">
<path d="M4183 27.1897C4134.33 41.4598 4001.1 70 3857.5 70C3678 70 3397 0.999983 3201 1C3005 1.00002 2898 57.9125 2688 57.9125C2478 57.9125 2325.91 16.1064 2239 12.1527C2161.5 8.62714 2114 22.1534 2092 27.1899C2043.33 41.46 1910.1 70 1766.5 70C1587 70 1306 0.999983 1110 1C914 1.00002 807 57.9125 597 57.9125C387 57.9125 234.911 16.1064 148 12.1527C70.5 8.62714 23 22.1534 1 27.1899" stroke="#BC7847"/>
</g>
<defs>
<clipPath id="clip0_330_72">
<rect width="4184" height="71" fill="white"/>
</clipPath>
</defs>
</svg>
