<svg width="4183" height="71" viewBox="0 0 4183 71" fill="none" xmlns="http://www.w3.org/2000/svg">
<path fill-rule="evenodd" clip-rule="evenodd" d="M2091 21.1578C2037.4 25.403 1993.11 33.205 1946.99 41.3304C1842.82 59.6798 1729.29 79.6782 1478.07 64.0848C1408.66 59.7766 1351.16 47.8947 1291.23 35.5102C1262.95 29.6644 1234.11 23.7066 1203.23 18.3805C1106.96 1.77519 990.886 -8.65394 809.488 9.69021C716.743 19.0692 647.858 32.2138 589.086 43.4289L589.082 43.4296C578.298 45.4875 567.854 47.4804 557.665 49.3732C491.952 61.5811 436.875 69.6211 369.579 64.0856C316.114 59.6878 265.64 50.5902 216.739 41.7759L216.738 41.7757C204.053 39.4893 191.474 37.2219 178.975 35.0606C118.31 24.5699 59.5653 16.5807 0 21.0857L0.075192 22.0828C59.5099 17.5877 118.152 25.5574 178.805 36.046C191.289 38.2049 203.86 40.4707 216.539 42.7562C265.445 51.5715 315.979 60.6801 369.497 65.0823C436.929 70.6289 492.113 62.5684 557.848 50.3564C568.038 48.4632 578.483 46.4702 589.266 44.4125L589.279 44.4101C648.05 33.1954 716.89 20.0594 809.588 10.6851C990.893 -7.64956 1106.87 2.77547 1203.06 19.366C1233.88 24.6805 1262.68 30.6314 1290.95 36.474C1350.92 48.8657 1408.53 60.7703 1478.01 65.0829C1729.35 80.6835 1843.05 60.6568 1947.26 42.3025C1993.36 34.1829 2037.6 26.3907 2091.08 22.155V22.1675C2150.51 17.6725 2209.15 25.6421 2269.81 36.1307C2282.29 38.2896 2294.86 40.5554 2307.54 42.8409C2356.45 51.6562 2406.98 60.7648 2460.5 65.167C2527.93 70.7136 2583.11 62.6531 2648.85 50.4411C2659.04 48.5479 2669.48 46.5549 2680.27 44.4973L2680.28 44.4949C2739.05 33.2802 2807.89 20.1441 2900.59 10.7698C3081.89 -7.56484 3197.87 2.86019 3294.06 19.4507C3324.88 24.7652 3353.68 30.7161 3381.95 36.5587C3441.92 48.9505 3499.53 60.855 3569.01 65.1676C3820.35 80.7683 3934.05 60.7415 4038.26 42.3872C4084.36 34.2675 4128.6 26.4751 4182.08 22.2394L4182 21.2426C4128.4 25.4877 4084.11 33.2898 4037.99 41.4151C3933.82 59.7646 3820.29 79.7629 3569.07 64.1695C3499.66 59.8613 3442.16 47.9794 3382.23 35.5949C3353.94 29.7491 3325.11 23.7913 3294.23 18.4652C3197.95 1.85991 3081.89 -8.56922 2900.49 9.77491C2807.74 19.1539 2738.86 32.2985 2680.09 43.5136C2669.3 45.5717 2658.86 47.5649 2648.67 49.4579C2582.95 61.6658 2527.88 69.7058 2460.58 64.1703C2407.12 59.7726 2356.64 50.6749 2307.74 41.8607C2295.06 39.5742 2282.48 37.3067 2269.98 35.1453C2209.31 24.6546 2150.57 16.6654 2091 21.1704V21.1578Z" fill="#3E689E"/>
</svg>
