<svg width="4326" height="55" viewBox="0 0 4326 55" fill="none" xmlns="http://www.w3.org/2000/svg">
<g clip-path="url(#clip0_1687_6350)">
<path d="M4326 43.3828L4325.93 43.8777L4326.5 43.9602V43.3828V0V-0.5H4326H3843H2163H2162.5V0V43.3828V43.8383L2162.95 43.8806L2163 43.3828C2162.95 43.8806 2162.96 43.8808 2162.96 43.8811L2162.96 43.8812L2162.96 43.8812L2162.96 43.8813L2162.96 43.8815L2162.98 43.8831L2163.14 43.8951L2164.37 43.9905L2174.19 44.7506C2185.41 45.6185 2207.83 47.3529 2252.63 50.8189L2252.64 50.8193C2414.66 61.1616 2536.38 52.9042 2723.07 40.2387C2766.81 37.2715 2814.11 34.0624 2866.33 30.7938C3009.3 21.8457 3112.1 26.0809 3207.73 32.9385C3230.88 34.5989 3253.62 36.4133 3276.4 38.2315C3347.72 43.9228 3419.52 49.6526 3506.14 50.8203C3597.58 52.0528 3681.81 47.0453 3743.18 41.7299C3773.87 39.0722 3798.84 36.3373 3816.14 34.2668C3824.79 33.2316 3831.52 32.3624 3836.09 31.752C3838.38 31.4467 3840.12 31.2062 3841.3 31.0419L3842 30.9425L3842.62 30.8542L3842.96 30.8059L3843.04 30.7937L3843.05 30.7922L3843.06 30.7918L3843.07 30.7906L3843.07 30.79L3843.15 30.7829L3843.43 30.755L3843.83 30.7159L3844.56 30.646C3845.55 30.5506 3847.01 30.4108 3848.9 30.2334C3852.69 29.8785 3858.2 29.3729 3865.07 28.7702C3878.81 27.5648 3898.02 25.9709 3919.89 24.4169C3963.63 21.3086 4017.99 18.3613 4060.49 18.9999C4112.46 19.7809 4178.82 25.9992 4232.19 32.0242C4258.87 35.0365 4282.31 37.9999 4299.07 40.2103C4307.46 41.3155 4314.17 42.2324 4318.79 42.873C4321.1 43.1933 4322.88 43.4445 4324.09 43.6156L4324.75 43.7088L4325.46 43.8108L4325.81 43.8608L4325.9 43.8734L4325.92 43.8766L4325.93 43.8774C4325.93 43.8776 4325.93 43.8777 4326 43.3828Z" fill="white" stroke="white"/>
<path d="M2163 43.3828L2162.93 43.8777L2163.5 43.9602V43.3828V0V-0.5H2163H1680H0H-0.5V0V43.3828V43.8354L-0.0496247 43.8803L0 43.3828C-0.0496247 43.8803 -0.0462573 43.8807 -0.0428869 43.881L-0.041239 43.8811L-0.0400317 43.8812L-0.0389912 43.8813L-0.0360812 43.8815L-0.0162584 43.8831L0.138777 43.8951L1.37035 43.9905L11.191 44.7506C22.4065 45.6185 44.8235 47.3529 89.6294 50.8189L89.6361 50.8193C251.659 61.1617 373.379 52.9041 560.074 40.2385C603.81 37.2713 651.113 34.0623 703.334 30.7938C846.3 21.8457 949.101 26.0809 1044.73 32.9385C1067.88 34.5989 1090.62 36.4133 1113.4 38.2315C1184.72 43.9228 1256.52 49.6526 1343.14 50.8203C1434.58 52.0528 1518.81 47.0453 1580.18 41.7299C1610.87 39.0722 1635.84 36.3373 1653.14 34.2668C1661.79 33.2316 1668.52 32.3624 1673.09 31.752C1675.38 31.4467 1677.12 31.2062 1678.3 31.0419L1679 30.9425L1679.62 30.8542L1679.96 30.8059L1680.04 30.7937L1680.05 30.7922L1680.06 30.7918L1680.07 30.7906L1680.07 30.79L1680.15 30.7829L1680.43 30.755L1680.83 30.7159L1681.56 30.646C1682.55 30.5506 1684.01 30.4108 1685.9 30.2334C1689.69 29.8785 1695.2 29.3729 1702.07 28.7702C1715.81 27.5648 1735.02 25.9709 1756.89 24.4169C1800.63 21.3086 1854.99 18.3613 1897.49 18.9999C1949.46 19.7809 2015.82 25.9992 2069.19 32.0242C2095.87 35.0365 2119.31 37.9999 2136.07 40.2103C2144.46 41.3155 2151.17 42.2324 2155.79 42.873C2158.1 43.1933 2159.88 43.4445 2161.09 43.6156L2161.75 43.7088L2162.46 43.8108L2162.81 43.8608L2162.9 43.8734L2162.92 43.8766L2162.93 43.8774C2162.93 43.8776 2162.93 43.8777 2163 43.3828Z" fill="white" stroke="white"/>
</g>
<defs>
<clipPath id="clip0_1687_6350">
<rect width="4326" height="55" fill="white"/>
</clipPath>
</defs>
</svg>
