<svg width="4326" height="55" viewBox="0 0 4326 55" fill="none" xmlns="http://www.w3.org/2000/svg">
<g clip-path="url(#clip0_1722_6335)">
<path d="M0 11.6172L0.0698242 11.1223L-0.5 11.0398V11.6172V55V55.5H0L483 55.5L2163 55.5H2163.5V55V11.6172V11.1617L2163.05 11.1194L2163 11.6172C2163.05 11.1194 2163.04 11.1192 2163.04 11.1189V11.1188V11.1187V11.1185L2163.02 11.1169L2162.86 11.1049L2161.63 11.0095L2151.81 10.2494C2140.59 9.3815 2118.17 7.6471 2073.37 4.1811L2073.36 4.1807C1911.34 -6.1616 1789.62 2.0958 1602.93 14.7613C1559.19 17.7285 1511.89 20.9376 1459.67 24.2062C1316.7 33.1543 1213.9 28.9191 1118.27 22.0615C1095.12 20.4011 1072.38 18.5867 1049.6 16.7685C978.28 11.0772 906.48 5.3474 819.86 4.1797C728.42 2.9472 644.19 7.9547 582.82 13.2701C552.13 15.9278 527.16 18.6627 509.86 20.7332C501.21 21.7684 494.48 22.6376 489.91 23.248C487.62 23.5533 485.88 23.7938 484.7 23.9581L484 24.0575L483.38 24.1458L483.04 24.1941L482.96 24.2063L482.95 24.2078L482.94 24.2082L482.93 24.2094V24.21L482.85 24.2171L482.57 24.245L482.17 24.2841L481.44 24.354C480.45 24.4494 478.99 24.5892 477.1 24.7666C473.31 25.1215 467.8 25.6271 460.93 26.2298C447.19 27.4352 427.98 29.0291 406.11 30.5831C362.37 33.6914 308.01 36.6387 265.51 36.0001C213.54 35.2191 147.18 29.0008 93.8101 22.9758C67.1301 19.9635 43.6902 17.0001 26.9302 14.7897C18.5402 13.6845 11.83 12.7676 7.20996 12.127C4.89996 11.8067 3.12016 11.5555 1.91016 11.3844L1.25 11.2912L0.540039 11.1892L0.189941 11.1392L0.100098 11.1266L0.0800781 11.1234L0.0698242 11.1226C0.0698242 11.1224 0.07 11.1223 0 11.6172Z" fill="white" stroke="white"/>
<path d="M2163 11.6172L2163.07 11.1223L2162.5 11.0398V11.6172V55V55.5H2163L2646 55.5L4326 55.5H4326.5V55V11.6172V11.1646L4326.05 11.1197L4326 11.6172C4326.05 11.1197 4326.05 11.1193 4326.04 11.119L4326.04 11.1189L4326.04 11.1188L4326.04 11.1187L4326.04 11.1185L4326.02 11.1169L4325.86 11.1049L4324.63 11.0095L4314.81 10.2494C4303.59 9.3815 4281.18 7.6471 4236.37 4.1811L4236.36 4.1807C4074.34 -6.1617 3952.62 2.0959 3765.93 14.7615C3722.19 17.7287 3674.89 20.9377 3622.67 24.2062C3479.7 33.1543 3376.9 28.9191 3281.27 22.0615C3258.12 20.4011 3235.38 18.5867 3212.6 16.7685C3141.28 11.0772 3069.48 5.3474 2982.86 4.1797C2891.42 2.9472 2807.19 7.9547 2745.82 13.2701C2715.13 15.9278 2690.16 18.6627 2672.86 20.7332C2664.21 21.7684 2657.48 22.6376 2652.91 23.248C2650.62 23.5533 2648.88 23.7938 2647.7 23.9581L2647 24.0575L2646.38 24.1458L2646.04 24.1941L2645.96 24.2063L2645.95 24.2078L2645.94 24.2082L2645.93 24.2094V24.21L2645.85 24.2171L2645.57 24.245L2645.17 24.2841L2644.44 24.354C2643.45 24.4494 2641.99 24.5892 2640.1 24.7666C2636.31 25.1215 2630.8 25.6271 2623.93 26.2298C2610.19 27.4352 2590.98 29.0291 2569.11 30.5831C2525.37 33.6914 2471.01 36.6387 2428.51 36.0001C2376.54 35.2191 2310.18 29.0008 2256.81 22.9758C2230.13 19.9635 2206.69 17.0001 2189.93 14.7897C2181.54 13.6845 2174.83 12.7676 2170.21 12.127C2167.9 11.8067 2166.12 11.5555 2164.91 11.3844L2164.25 11.2912L2163.54 11.1892L2163.19 11.1392L2163.1 11.1266L2163.08 11.1234L2163.07 11.1226C2163.07 11.1224 2163.07 11.1223 2163 11.6172Z" fill="white" stroke="white"/>
</g>
<defs>
<clipPath id="clip0_1722_6335">
<rect width="4326" height="55" fill="white" transform="translate(4326 55) rotate(-180)"/>
</clipPath>
</defs>
</svg>
